# xmcd
#
# Track frame offsets: 
#        150
#        15399
#        31355
#        49439
#        67646
#        81658
#        96855
#        114527
#        128812
#        145451
#        157530
#
# Disc length: 2547 seconds
#
# Revision: 0
# Processed by: cddbd v1.5.2PL0 Copyright (c) Steve Scherf et al.
# Submitted via: ExactAudioCopy v1.0b3
#
DISCID=8a09f10b
DTITLE=Лина Милович - Милович здесь
DYEAR=2007
DGENRE=Avantgarde
TTITLE0=Остров белых птиц
TTITLE1=Пока он смотрит мне в глаза
TTITLE2=Птица
TTITLE3=Одноразовый сон
TTITLE4=Что хотела...
TTITLE5=Пропаду
TTITLE6=Приду туда
TTITLE7=Белое солнце
TTITLE8=Ранима
TTITLE9=Слёзы после дождя
TTITLE10=Бегущая по волнам
EXTD=
EXTT0=
EXTT1=
EXTT2=
EXTT3=
EXTT4=
EXTT5=
EXTT6=
EXTT7=
EXTT8=
EXTT9=
EXTT10=
PLAYORDER=
